# xmcd CD database file
#
# Track frame offsets:
#	150
#	18505
#	46275
#	61854
#	79770
#	96540
#	122124
#	140669
#	171107
#	196451
#	214666
#	234226
#	256282
#	274396
#	330136
#
# Disc length: 4603 seconds
#
# Revision: 8
# Processed by: cddbd v1.5.2PL0 Copyright (c) Steve Scherf et al.
# Submitted via: CDex 1.70beta2
#
DISCID=d411f90f
DTITLE=Various Artist - Best Jazz 100 (Disc5)
DYEAR=2006
DGENRE=Jazz
TTITLE0=It Never Entered My Mind - Miles Davis
TTITLE1=Violets For Your Furs - Jutta Hipp With Zoot Sims
TTITLE2=Moonglow - Benny Goodman
TTITLE3=Like Someone In Love - George Shearing
TTITLE4=Let’s Get Lost - Chet Baker
TTITLE5=Stairway To The Stars - BILL EVANS，Scott LaFaro
TTITLE6=Dancing In The Dark - Cannonball Adderley
TTITLE7=I’m A Fool To Want You - Dexter Gordon
TTITLE8=Yesterdays - Stan Kenton
TTITLE9=Midnight Blue - Kenny Burrell
TTITLE10=I’ve Got The World On A String - Joe Lovano
TTITLE11=The Touch Of Your Lips - Art Farmer
TTITLE12=Make It Go Away - Holly Cole
TTITLE13=Trompeta Toccata - Kenny Dorham
TTITLE14=These Foolish Things - Lee Konitz
EXTD=YEAR: 2006
EXTT0=
EXTT1=
EXTT2=
EXTT3=
EXTT4=
EXTT5=
EXTT6=
EXTT7=
EXTT8=
EXTT9=
EXTT10=
EXTT11=
EXTT12=
EXTT13=
EXTT14=
PLAYORDER=
